<svg version="1.1" width="200" height="200" viewBox="0 0 1024 1024" xmlns="http://www.w3.org/2000/svg" xmlns:xlink="http://www.w3.org/1999/xlink" overflow="hidden"><style>
.MsftOfcThm_Background1_Fill {
 fill:#FFFFFF; 
}
</style>
<defs></defs><path d=" M 151.273 397.964 L 69.8182 397.964 C 44.2182 397.964 23.2727 418.909 23.2727 444.509 L 23.2727 977.455 C 23.2727 1003.05 44.2182 1024 69.8182 1024 L 151.273 1024 C 176.873 1024 186.182 1003.05 186.182 977.455 L 186.182 442.182 C 186.182 416.582 176.873 397.964 151.273 397.964 Z M 907.636 418.909 L 605.091 418.909 C 700.509 328.145 770.327 0 584.145 0 C 442.182 0 470.109 134.982 425.891 221.091 C 386.327 297.891 323.491 346.764 281.6 372.364 C 253.673 388.655 235.055 407.273 235.055 439.855 L 235.055 928.582 C 235.055 979.782 279.273 1021.67 330.473 1021.67 L 812.218 1021.67 C 856.436 1021.67 893.673 982.109 902.982 940.218 C 935.564 798.255 970.473 646.982 1003.05 509.673 C 1014.69 456.145 968.145 418.909 907.636 418.909 Z" class="MsftOfcThm_Background1_Fill" stroke="none" stroke-width="1" stroke-linecap="butt" fill="#FFFFFF" fill-opacity="1"/></svg>