<svg version="1.1" width="200" height="200" viewBox="0 0 1024 1024" xmlns="http://www.w3.org/2000/svg" xmlns:xlink="http://www.w3.org/1999/xlink" class="icon" overflow="hidden"><style>
.MsftOfcThm_Background1_Fill {
 fill:#FFFFFF; 
}
</style>
<defs></defs><path d=" M 661.248 620.416 C 874.496 376.32 785.504 188.064 785.504 188.064 C 679.136 -55.712 430.656 11.648 430.656 11.648 C 180.832 84.032 186.464 275.968 211.264 382.592 C 236.064 489.248 373.888 639.04 373.888 639.04 C 348.48 658.432 136.256 790.656 84.416 818.144 C 32.672 845.664 34.848 911.264 34.848 911.264 C 34.944 970.592 82.464 1003.1 82.464 1003.1 C 163.52 1054.11 223.2 995.488 223.2 995.488 C 252.256 977.632 393.504 870.848 393.504 870.848 C 570.048 731.136 661.248 620.416 661.248 620.416 Z M 383.392 357.952 C 346.464 277.408 361.888 183.776 491.936 165.92 C 491.936 165.92 659.52 150.368 633.792 327.296 C 633.792 327.296 624.064 399.232 510.368 521.28 C 510.336 521.248 420.384 438.528 383.392 357.952 Z" class="MsftOfcThm_Background1_Fill" stroke="none" stroke-width="1" stroke-dasharray="" stroke-dashoffset="1" fill="#FFFFFF" fill-opacity="1"/><path d=" M 926.912 818.912 L 702.56 677.792 L 528.192 789.312 C 580.512 842.112 753.856 970.112 778.208 987.872 C 802.656 1005.63 884.896 1049.54 943.232 967.36 C 1001.57 885.248 926.912 818.912 926.912 818.912 Z" class="MsftOfcThm_Background1_Fill" stroke="none" stroke-width="1" stroke-dasharray="" stroke-dashoffset="1" fill="#FFFFFF" fill-opacity="1"/></svg>