<svg version="1.1" width="200" height="200" viewBox="0 0 1024 1024" xmlns="http://www.w3.org/2000/svg" xmlns:xlink="http://www.w3.org/1999/xlink" class="icon" overflow="hidden"><style>
.MsftOfcThm_Background1_Fill {
 fill:#FFFFFF; 
}
</style>
<defs></defs><path d=" M 550.644 706.482 C 485.674 706.577 420.518 681.096 371.439 631.923 L 371.439 631.923 L 363.73 624.216 L 475.05 512.799 L 482.854 520.604 C 501.938 539.689 526.1 548.904 550.644 548.999 L 550.644 548.999 C 576.308 548.904 600.85 539.689 619.936 520.604 L 619.936 520.604 L 802.525 338.11 C 821.518 318.93 830.823 294.484 830.918 269.381 L 830.918 269.381 C 830.823 244.372 821.61 220.02 802.525 200.84 L 802.525 200.84 L 794.72 193.131 C 775.637 174.044 751.187 164.736 726.18 164.642 L 726.18 164.642 C 701.076 164.736 676.724 174.044 657.451 193.131 L 657.451 193.131 L 582.514 268.158 C 551.77 298.904 501.846 298.904 471.195 268.158 L 471.195 268.158 C 440.451 237.414 440.451 187.582 471.195 156.838 L 471.195 156.838 L 546.223 81.7151 C 595.679 32.2607 661.304 7.15803 726.18 7.25012 L 726.18 7.25012 C 790.958 7.157 856.585 32.2597 906.132 81.7151 L 906.132 81.7151 L 913.843 89.5188 C 963.298 138.88 988.497 204.413 988.402 269.381 L 988.402 269.381 C 988.497 334.161 963.485 399.787 913.843 449.43 L 913.843 449.43 L 731.254 631.923 C 681.52 681.756 615.609 706.482 551.112 706.482 L 551.112 706.482 C 550.922 706.482 550.829 706.482 550.644 706.482 L 550.644 706.482 Z" class="MsftOfcThm_Background1_Fill" stroke="none" stroke-width="1" stroke-dasharray="" stroke-dashoffset="1" fill="#FFFFFF" fill-opacity="0.101961"/><path d=" M 297.161 1016.75 C 232.194 1016.75 167.038 991.364 117.865 942.192 L 117.865 942.192 L 110.155 934.483 C 60.5127 884.841 35.5021 819.119 35.5962 754.245 L 35.5962 754.245 C 35.5031 689.37 60.7 623.837 110.155 574.571 L 110.155 574.571 L 292.649 392.077 C 342.198 342.528 407.731 317.424 472.698 317.52 L 472.698 317.52 C 523.471 317.424 574.806 332.845 618.43 363.401 L 618.43 363.401 C 625.576 367.067 632.345 371.863 638.458 377.88 L 638.458 377.88 L 652.56 392.077 L 660.365 399.786 L 660.365 399.786 L 660.365 399.786 L 549.044 511.107 L 548.949 511.107 L 541.238 503.396 C 522.061 484.31 497.707 475.002 472.698 475.002 L 472.698 475.002 C 447.502 475.002 423.151 484.31 404.063 503.396 L 404.063 503.396 L 221.476 685.892 C 202.389 705.073 193.269 729.329 193.081 754.245 L 193.081 754.245 C 193.269 779.537 202.483 803.982 221.476 823.068 L 221.476 823.068 L 229.185 830.871 C 248.366 849.956 272.624 859.172 297.161 859.267 L 297.161 859.267 C 322.83 859.172 347.369 849.865 366.456 830.871 L 366.456 830.871 L 445.151 752.269 C 475.895 721.525 525.727 721.525 556.47 752.269 L 556.47 752.269 C 587.216 782.921 587.216 832.846 556.47 863.591 L 556.47 863.591 L 477.775 942.192 C 428.038 992.024 362.13 1016.75 297.537 1016.75 L 297.537 1016.75 C 297.444 1016.75 297.256 1016.75 297.161 1016.75 L 297.161 1016.75 Z" class="MsftOfcThm_Background1_Fill" stroke="none" stroke-width="1" stroke-dasharray="" stroke-dashoffset="1" fill="#FFFFFF" fill-opacity="0.101961"/></svg>