<svg version="1.1" width="200" height="200" viewBox="0 0 1024 1024" xmlns="http://www.w3.org/2000/svg" xmlns:xlink="http://www.w3.org/1999/xlink" class="icon" overflow="hidden"><style>
.MsftOfcThm_Background1_Fill {
 fill:#FFFFFF; 
}
</style>
<defs></defs><path d=" M 499.055 431.739 C 499.055 429.149 499.055 429.149 499.055 431.739 C 499.055 429.149 499.055 431.739 499.055 431.739 Z M 672.523 618.152 L 667.345 618.152 C 667.345 618.152 669.934 620.742 672.523 618.152 Z M 506.822 64.09 C 263.449 64.09 64.09 260.86 64.09 506.822 C 64.09 752.784 260.86 949.554 506.822 949.554 C 750.195 949.554 949.554 752.784 949.554 506.822 C 949.554 260.86 752.784 64.09 506.822 64.09 Z M 789.032 237.558 C 773.497 237.558 763.14 237.558 750.195 245.325 C 745.017 247.915 742.428 253.092 734.661 255.681 C 729.482 258.271 721.715 255.681 716.537 258.271 C 695.824 266.038 698.414 307.463 672.523 302.285 C 659.577 299.695 651.81 284.161 644.043 273.805 C 638.865 266.038 628.508 258.27 636.276 247.915 L 625.919 247.915 C 631.098 237.558 644.043 240.147 646.632 234.969 C 651.81 222.023 631.098 222.023 623.33 219.434 C 631.098 211.667 633.687 222.024 641.454 219.434 C 649.221 216.845 638.864 209.078 633.687 206.489 C 631.097 206.489 607.796 214.256 620.741 201.311 C 602.618 190.955 584.494 178.009 566.371 167.653 C 563.781 180.598 589.672 188.365 600.029 190.955 C 597.439 196.133 589.672 203.9 584.494 201.311 C 579.316 198.721 581.905 188.365 571.549 190.955 C 566.371 206.489 584.494 201.311 587.083 211.667 C 589.673 222.023 579.316 216.845 576.727 216.845 C 576.727 216.845 568.96 209.078 568.96 214.256 C 568.96 219.434 579.316 219.434 581.905 224.613 C 568.96 224.613 561.192 219.434 550.836 214.256 C 537.891 206.489 532.713 206.489 517.178 206.489 C 522.356 203.899 527.534 203.899 532.713 201.311 C 535.302 198.721 543.069 190.955 543.069 188.365 C 545.658 180.598 543.069 180.598 535.302 175.42 C 532.712 172.831 524.945 162.475 514.589 162.475 C 486.109 157.297 504.233 188.365 483.52 193.544 C 478.342 193.544 467.986 190.954 465.397 196.133 C 462.807 198.722 462.807 206.489 460.218 209.078 C 455.04 214.256 447.273 214.256 442.095 219.434 C 436.917 222.024 423.971 232.38 421.382 237.558 C 408.437 260.86 447.273 268.627 462.808 273.805 C 470.575 276.394 488.698 281.572 491.288 286.75 C 496.466 294.518 486.109 299.696 496.466 304.874 C 499.055 307.463 506.822 307.463 509.411 302.284 C 514.589 297.107 506.821 297.107 506.821 289.339 C 504.233 278.983 509.411 281.572 514.589 278.983 C 524.945 271.216 522.356 268.627 519.767 255.681 C 517.178 250.503 509.411 232.38 517.178 227.201 C 524.945 222.023 543.068 229.791 550.836 232.38 C 558.603 232.38 563.782 242.736 566.371 247.914 C 568.96 250.504 574.138 255.681 579.316 255.681 C 587.083 255.681 584.494 247.914 587.083 245.325 C 600.029 237.558 602.618 247.915 607.796 258.27 C 612.974 268.627 615.563 271.216 623.33 278.983 C 625.92 281.573 644.043 291.928 641.454 299.696 C 641.454 304.874 623.33 310.052 618.152 312.641 C 600.029 317.819 566.371 302.285 563.782 330.765 C 571.549 328.175 589.672 312.641 594.85 320.408 C 597.44 322.998 592.261 328.176 594.85 333.354 C 597.44 343.71 605.207 341.121 615.563 338.532 L 612.974 338.532 C 623.33 333.354 623.33 333.354 628.508 325.586 C 631.098 322.997 633.687 315.23 636.276 312.641 C 644.043 304.874 646.632 310.052 651.81 315.231 C 654.4 317.819 664.756 335.943 662.166 333.354 C 646.632 330.764 633.686 330.764 620.741 338.532 C 612.974 343.71 607.796 348.888 600.029 351.477 C 597.439 351.477 581.905 354.067 584.494 351.477 C 587.084 348.888 594.85 346.299 600.029 341.121 C 589.672 335.943 581.905 346.299 574.138 351.477 C 566.371 354.067 563.782 361.834 558.603 369.601 C 556.014 372.19 550.836 372.19 548.247 377.368 C 545.658 379.958 545.658 385.135 543.069 390.313 C 540.479 392.903 535.302 390.313 535.302 395.492 C 532.712 400.67 537.891 403.259 535.302 408.437 C 532.713 413.615 522.356 418.793 517.178 423.971 L 519.768 421.382 C 514.589 426.56 509.411 429.15 506.822 434.328 C 509.411 442.095 514.589 460.218 512 462.808 C 499.055 473.164 491.287 452.451 486.11 447.273 C 473.164 429.15 449.862 442.095 431.739 442.095 C 411.026 444.684 390.313 470.575 403.259 493.876 C 408.437 504.233 421.382 509.411 431.739 506.822 C 442.095 504.232 444.684 488.698 455.04 488.698 C 473.164 488.698 455.04 506.822 455.04 514.589 C 452.451 519.767 457.63 522.356 462.808 522.356 C 467.986 522.356 475.753 519.767 478.342 522.356 C 480.932 524.946 480.932 532.713 483.52 530.124 C 475.753 535.302 478.342 550.836 486.11 556.014 C 493.876 561.192 504.233 556.014 512 558.604 C 527.534 563.782 519.767 558.604 535.302 548.247 C 545.658 543.069 545.658 548.247 553.425 548.247 C 558.603 548.247 561.192 543.069 568.96 543.069 C 574.138 545.658 576.727 548.247 584.494 550.836 L 592.261 550.836 C 605.207 553.426 615.563 561.192 625.919 568.96 C 633.687 574.138 641.454 574.138 651.81 576.727 C 659.577 579.316 672.523 589.672 672.523 600.029 C 672.523 602.618 664.756 610.385 664.756 612.974 C 667.345 615.564 680.29 610.384 682.879 610.384 C 682.879 612.974 672.523 618.152 672.523 615.564 C 672.523 618.152 677.701 620.741 680.29 620.741 C 685.468 605.207 693.235 615.563 701.003 618.152 C 708.77 620.742 719.126 620.742 726.893 623.33 C 734.661 625.92 750.195 631.098 755.373 636.276 C 760.551 644.043 757.963 654.399 752.784 662.166 C 747.606 672.523 737.25 675.112 732.072 685.468 C 729.482 693.235 732.072 703.592 729.482 711.358 C 726.893 724.304 724.304 719.126 716.537 726.893 C 708.77 734.66 716.537 732.072 706.181 737.25 C 695.825 742.428 688.057 739.839 680.29 750.195 L 680.29 747.606 C 677.7 752.784 675.112 760.551 675.112 763.14 C 672.522 770.908 667.345 773.497 662.166 778.675 C 659.577 781.264 641.454 807.155 641.454 804.565 C 638.864 801.977 625.919 807.155 625.919 804.565 C 625.919 807.155 625.919 807.155 628.509 809.744 C 625.919 830.456 615.563 833.045 594.85 833.045 C 597.44 843.402 587.083 840.813 581.905 845.991 C 579.316 848.58 579.316 858.936 576.727 861.525 C 576.727 864.115 566.371 874.471 566.371 877.06 C 566.371 879.649 568.96 882.238 571.549 884.827 C 556.014 887.417 543.069 890.005 527.534 890.005 C 530.124 887.416 530.124 882.238 522.356 882.238 C 524.946 874.471 530.124 871.882 532.713 866.703 L 532.713 858.936 C 535.302 848.58 535.302 853.758 532.713 845.991 C 527.534 827.867 535.302 822.689 540.48 804.566 C 545.658 786.442 545.658 765.73 548.247 745.016 C 550.837 737.25 553.425 716.537 548.247 708.77 C 545.658 698.414 530.124 690.646 522.357 685.468 C 512 675.112 506.822 667.345 499.055 654.399 C 496.465 649.221 491.287 644.043 488.698 636.276 C 483.52 623.33 488.698 631.098 488.698 623.33 C 488.698 615.562 488.698 607.796 491.288 600.029 C 493.876 592.261 501.644 584.494 506.822 576.727 C 509.411 568.96 506.822 558.603 499.055 556.014 C 493.876 553.425 488.698 558.604 486.109 556.014 C 480.931 556.014 473.164 550.836 467.986 545.658 C 460.218 540.48 457.629 532.713 449.862 527.534 C 444.684 522.356 439.506 524.945 431.739 524.945 C 423.971 522.356 421.382 514.589 416.204 512 C 408.437 506.822 403.259 514.59 395.492 512 C 387.724 512 377.368 501.644 369.601 499.055 C 354.066 493.876 346.299 486.109 341.121 470.575 C 335.943 457.629 328.176 452.451 320.408 442.095 C 312.641 431.739 310.052 423.971 297.107 418.793 C 294.517 418.793 299.696 429.15 299.696 431.739 C 304.874 439.506 312.641 447.273 317.819 457.629 C 325.586 470.575 322.997 470.575 315.23 460.219 C 304.874 447.273 294.518 434.328 286.75 421.382 C 291.928 426.56 291.928 421.382 286.75 416.204 C 281.572 411.026 273.805 408.437 271.216 403.259 C 253.092 387.724 250.503 364.423 250.503 341.121 C 250.503 333.354 253.093 328.176 253.093 320.408 C 253.093 315.23 247.914 310.052 242.736 304.874 C 240.147 302.284 237.558 297.107 237.558 297.107 C 232.38 289.339 229.791 284.161 224.613 278.983 C 222.023 276.394 211.667 268.627 201.311 260.86 C 242.736 209.078 297.107 167.653 359.244 141.762 C 359.244 144.352 361.834 146.94 361.834 152.118 C 369.601 159.886 374.779 159.886 382.546 162.475 C 382.546 172.831 367.012 175.42 359.244 172.831 C 348.888 170.241 335.943 167.653 328.176 178.009 C 333.354 180.599 348.888 193.544 346.299 180.599 L 377.368 180.599 C 382.546 180.599 395.492 185.776 398.081 183.187 C 400.67 183.187 400.67 175.42 403.259 172.831 C 400.669 172.831 398.081 170.241 395.492 172.831 C 403.259 165.064 408.437 170.241 418.793 175.42 C 408.437 180.598 416.204 196.133 423.971 183.187 C 431.739 172.831 421.382 167.653 413.615 162.475 C 423.971 149.529 429.15 149.529 439.505 162.475 C 442.095 154.707 447.273 157.297 455.04 157.297 L 455.04 154.707 C 452.451 154.707 447.273 152.118 444.684 152.118 C 452.451 139.173 447.274 136.584 457.629 133.995 C 465.397 131.405 488.699 133.995 493.876 126.228 C 478.342 128.817 457.629 131.406 442.095 136.584 C 434.328 139.173 429.15 149.529 421.382 144.351 C 413.615 136.584 426.56 126.228 431.739 123.639 L 429.149 123.639 C 455.04 118.46 483.52 115.871 512 115.871 C 530.124 115.871 548.247 118.461 566.37 118.461 C 561.192 121.049 563.782 123.639 561.192 126.228 C 553.425 131.406 537.891 136.584 527.534 141.762 C 540.48 141.762 571.549 154.707 576.727 136.584 C 571.549 136.584 568.96 136.584 563.782 133.994 C 571.549 128.817 579.316 123.639 589.672 121.049 C 664.756 139.173 737.25 180.599 789.032 237.558 C 791.62 237.558 789.032 237.558 789.032 237.558 Z M 861.525 392.902 C 861.525 390.313 864.115 390.313 864.115 390.313 C 866.703 387.724 864.115 385.135 866.703 382.546 C 869.293 379.957 871.882 379.957 874.471 377.368 L 877.06 374.778 C 884.827 392.902 890.005 411.026 892.594 431.738 L 884.827 434.328 C 879.649 434.328 877.06 431.738 874.471 429.15 L 864.114 418.793 C 861.525 413.615 864.114 411.026 864.114 405.848 C 861.525 400.67 858.936 395.492 861.525 392.902 Z M 866.703 594.85 C 858.936 587.083 851.169 579.316 845.991 571.549 C 840.813 561.192 843.401 553.425 843.401 543.069 C 843.401 535.302 838.224 522.356 843.401 514.589 L 851.169 506.822 C 853.759 501.644 853.759 496.466 858.936 491.287 C 864.114 486.109 869.293 483.52 874.471 478.342 C 879.649 473.164 879.649 470.575 882.238 462.808 C 884.827 457.629 890.005 449.862 895.183 447.273 C 897.773 467.986 900.361 486.109 900.361 506.822 C 900.361 540.48 895.183 576.727 887.416 607.796 C 879.649 605.206 871.882 600.029 866.703 594.85 Z" class="MsftOfcThm_Background1_Fill" stroke="none" stroke-width="1" stroke-dasharray="" stroke-dashoffset="1" fill="#FFFFFF" fill-opacity="1"/></svg>