<svg version="1.1" width="200" height="200" viewBox="0 0 1024 1024" xmlns="http://www.w3.org/2000/svg" xmlns:xlink="http://www.w3.org/1999/xlink" class="icon" overflow="hidden"><style>
.MsftOfcThm_Background1_Fill {
 fill:#FFFFFF; 
}
</style>
<defs></defs><path d=" M 74.402 190.399 L 74.402 823.048 C 74.402 823.048 162.516 761.328 285.962 761.328 C 408.553 761.328 496.666 823.048 496.666 823.048 L 496.666 198.98 C 496.666 198.98 408.551 126.963 285.962 126.963 C 162.516 126.962 74.402 190.399 74.402 190.399 L 74.402 190.399 L 74.402 190.399 Z M 527.332 190.399 L 527.332 823.048 C 527.332 823.048 615.018 761.328 738.466 761.328 C 861.911 761.328 949.597 823.048 949.597 823.048 L 949.597 198.98 C 949.597 198.98 861.911 126.963 738.466 126.963 C 615.019 126.962 527.332 190.399 527.332 190.399 L 527.332 190.399 L 527.332 190.399 Z M 13.0681 264.543 L 41.3759 264.543 L 41.3759 868.45 L 437.69 868.45 L 437.69 899.118 L 588.669 899.118 L 588.669 868.45 L 982.623 868.45 L 982.623 264.543 L 1010.93 264.543 L 1010.93 899.118 L 630.178 899.118 L 631.887 929.784 L 404.664 929.784 L 404.664 899.118 L 13.0681 899.118 L 13.0681 264.543 L 13.0681 264.543 Z" class="MsftOfcThm_Background1_Fill" stroke="none" stroke-width="1" stroke-dasharray="" stroke-dashoffset="1" fill="#FFFFFF" fill-opacity="1"/></svg>