<svg version="1.1" width="200" height="200" viewBox="0 0 1024 1024" xmlns="http://www.w3.org/2000/svg" xmlns:xlink="http://www.w3.org/1999/xlink" class="icon" overflow="hidden"><style>
.MsftOfcThm_Background1_Fill {
 fill:#FFFFFF; 
}
</style>
<defs></defs><path d=" M 1023.16 358.69 C 1022.38 356.881 878.652 115.362 878.652 115.362 L 767.599 358.69 L 1023.16 358.69 M 321.263 358.69 L 700.177 358.69 L 510.72 90.522 L 321.263 358.69 M 471.799 78.592 L 204.297 78.592 C 193.852 78.592 182.605 82.364 173.03 88.491 L 287.54 339.388 L 471.8 78.592 M 849.818 85.393 C 841.558 81.118 832.478 78.592 823.936 78.592 L 549.641 78.592 L 733.892 339.396 L 849.818 85.393 M 310.494 397.363 C 310.494 397.363 511.113 1015.59 511.582 1015.63 L 710.963 397.363 L 310.493 397.363 M 145.733 121.822 L 4.624 358.69 L 253.84 358.69 L 145.732 121.822 M 0 397.363 L 450.68 957.09 L 269.85 397.363 L 0 397.363 M 1023.95 397.363 L 751.599 397.363 L 566.255 972.075 C 566.255 972.083 1022.18 402.245 1023.95 397.363" class="MsftOfcThm_Background1_Fill" stroke="none" stroke-width="1" stroke-dasharray="" stroke-dashoffset="1" fill="#FFFFFF" fill-opacity="1"/></svg>